<?xml version="1.0" encoding="utf-8"?>
<!-- Generator: Adobe Illustrator 25.4.1, SVG Export Plug-In . SVG Version: 6.00 Build 0)  -->
<svg version="1.1" id="Layer_1" xmlns="http://www.w3.org/2000/svg" xmlns:xlink="http://www.w3.org/1999/xlink" x="0px" y="0px"
	 viewBox="0 0 120.5 120.1" style="enable-background:new 0 0 120.5 120.1;" xml:space="preserve">
<style type="text/css">
	.st0{opacity:0.5;}
	.st1{fill:#BB6152;}
</style>
<g id="Layer_2_00000058563283169753048510000003614332344011518125_">
	<g id="Layer_1-2">
		<g class="st0">
			<path class="st1" d="M119.5,2.4v115.7L61.6,60.3L119.5,2.4 M120.5,0L60.2,60.3l59.9,59.8h0.4V0L120.5,0z"/>
			<path class="st1" d="M118.1,1L60.2,58.9L2.2,1H118.1 M120.6,0H0v0.2l60.2,60.1L120.6,0L120.6,0L120.6,0z"/>
			<path class="st1" d="M1,2.7l57.8,57.7L1,118V2.7 M0,0.2v119.9h0.3l59.8-59.8L0,0.2z"/>
			<path class="st1" d="M60.2,61.7l57.5,57.4H2.7L60.2,61.7 M60.2,60.3L0.3,120.1h119.8C120.1,120.1,60.2,60.3,60.2,60.3z"/>
		</g>
	</g>
</g>
</svg>
